<svg xmlns="http://www.w3.org/2000/svg" version="1.1" xmlns:xlink="http://www.w3.org/1999/xlink" xmlns:svgjs="http://svgjs.dev/svgjs" width="1000" height="194" viewBox="0 0 1000 194"><g transform="matrix(1,0,0,1,-0.6060606060606801,0.08380292680330115)"><svg viewBox="0 0 396 77" data-background-color="#ffffff" preserveAspectRatio="xMidYMid meet" height="194" width="1000" xmlns="http://www.w3.org/2000/svg" xmlns:xlink="http://www.w3.org/1999/xlink"><g id="tight-bounds" transform="matrix(1,0,0,1,0.24000000000003752,-0.03326198641161682)"><svg viewBox="0 0 395.5199999999999 77.06652397282323" height="77.06652397282323" width="395.5199999999999"><g><svg viewBox="0 0 507.771689432485 98.93861012431626" height="77.06652397282323" width="395.5199999999999"><g><rect width="4.304093567610462" height="47.96589636996518" x="96.68033521667967" y="25.486356877175538" fill="#0074d9" opacity="1" stroke-width="0" stroke="transparent" fill-opacity="1" class="rect-r$-0" data-fill-palette-color="primary" rx="1%" id="r$-0" data-palette-color="#0074d9"></rect></g><g transform="matrix(1,0,0,1,112.25168943248505,25.60567502734958)"><svg viewBox="0 0 395.52 47.727260069617095" height="47.727260069617095" width="395.52"><g id="textblocktransform"><svg viewBox="0 0 395.52 47.727260069617095" height="47.727260069617095" width="395.52" id="textblock"><g><svg viewBox="0 0 395.52 47.727260069617095" height="47.727260069617095" width="395.52"><g transform="matrix(1,0,0,1,0,0)"><svg width="395.52" viewBox="2.5 -35.9 303.63 36.4" height="47.727260069617095" data-palette-color="#0074d9"><g class="wordmark-text-0" data-fill-palette-color="primary" id="text-0"><path d="M15.5 0.5L15.5 0.5Q12.75 0.5 10.3-0.03 7.85-0.55 6.05-1.3 4.25-2.05 3.4-2.7L3.4-2.7 3.4-11.65Q5.8-10.3 9.45-9.13 13.1-7.95 17.55-7.95L17.55-7.95Q19.35-7.95 20.23-8.43 21.1-8.9 21.1-10.1L21.1-10.1Q21.1-11.4 19.13-12.28 17.15-13.15 12.9-14.45L12.9-14.45Q9.6-15.5 7.28-16.78 4.95-18.05 3.73-19.98 2.5-21.9 2.5-24.9L2.5-24.9Q2.5-28 4.1-30.5 5.7-33 9.1-34.45 12.5-35.9 17.8-35.9L17.8-35.9Q19.4-35.9 21.23-35.77 23.05-35.65 24.15-35.45L24.15-35.45 29.8-31.3 27.85-25.2 16-28.45Q13.95-28.45 12.98-27.6 12-26.75 12-25.55L12-25.55Q12-24.1 13.65-23.25 15.3-22.4 18.4-21.55L18.4-21.55Q23.3-20.2 26-18.55 28.7-16.9 29.8-14.83 30.9-12.75 30.9-10.15L30.9-10.15Q30.9-5.35 27.05-2.43 23.2 0.5 15.5 0.5ZM45.9 0L36.4 0 36.4-27.35 35.9-32.35 36.4-35.4 45.4-35.4 45.4-21.85 57.85-21.85 57.85-35.4 66.85-35.4 66.85-16.6 67.35-13.15 67.35 0 57.85 0 57.85-13.2 45.4-13.2 45.4-10.2 45.9 0ZM89.3 0.5L89.3 0.5Q86.09 0.5 83.07-0.28 80.05-1.05 77.62-3.05 75.19-5.05 73.77-8.6 72.34-12.15 72.34-17.7L72.34-17.7Q72.34-23.25 73.77-26.8 75.19-30.35 77.62-32.35 80.05-34.35 83.07-35.13 86.09-35.9 89.3-35.9L89.3-35.9Q92.5-35.9 95.52-35.1 98.55-34.3 100.97-32.3 103.4-30.3 104.82-26.75 106.25-23.2 106.25-17.7L106.25-17.7Q106.25-12.2 104.82-8.65 103.4-5.1 100.97-3.1 98.55-1.1 95.52-0.3 92.5 0.5 89.3 0.5ZM89.3-8L89.3-8Q93-8 94.89-10.2 96.8-12.4 96.8-17.7L96.8-17.7Q96.8-23 94.89-25.2 93-27.4 89.3-27.4L89.3-27.4Q85.64-27.4 83.75-25.15 81.84-22.9 81.84-17.7L81.84-17.7Q81.84-12.5 83.75-10.25 85.64-8 89.3-8ZM131.69 0L118.74 0 110.74-27.45 109.24-32.4 109.24-35.4 118.74-35.4 124.99-9.6 125.99-9.6 130.74-35.4 143.89-35.4 147.79-15.95 148.59-9.6 149.59-9.6 155.79-35.4 165.19-35.4 165.19-32.4 163.69-27.45 155.79 0 142.84 0 137.69-26.1 136.64-26.1 135.79-20.05 131.69 0ZM186.14 0.5L186.14 0.5Q182.74 0.5 179.54-0.28 176.34-1.05 173.76-3.05 171.19-5.05 169.69-8.6 168.19-12.15 168.19-17.7L168.19-17.7Q168.19-22.85 169.69-26.35 171.19-29.85 173.69-31.95 176.19-34.05 179.16-34.98 182.14-35.9 185.14-35.9L185.14-35.9Q187.69-35.9 190.12-35.5 192.54-35.1 193.64-34.6L193.64-34.6 199.19-30.05 194.69-22.8 186.14-27.2Q182.59-27.2 180.14-24.88 177.69-22.55 177.69-17.7L177.69-17.7Q177.69-14.25 178.91-12.1 180.14-9.95 182.29-8.95 184.44-7.95 187.19-7.95L187.19-7.95Q190.09-7.95 192.14-8.43 194.19-8.9 195.74-9.58 197.29-10.25 198.69-10.9L198.69-10.9 198.69-2.5Q196.94-1.4 194.04-0.45 191.14 0.5 186.14 0.5ZM210.79 0L201.39 0 203.79-8.45 203.79-14.8 207.49-16.3 213.99-35.35 226.94-35.35 234.99-12.95 238.84-5.85 238.84 0 229.99 0 227.49-8 212.94-8 210.79 0ZM219.89-27.15L216.24-15.7 224.74-15.7 220.94-27.15 219.89-27.15ZM254.83 0.5L254.83 0.5Q252.08 0.5 249.63-0.03 247.18-0.55 245.38-1.3 243.58-2.05 242.73-2.7L242.73-2.7 242.73-11.65Q245.13-10.3 248.78-9.13 252.43-7.95 256.88-7.95L256.88-7.95Q258.69-7.95 259.56-8.43 260.44-8.9 260.44-10.1L260.44-10.1Q260.44-11.4 258.46-12.28 256.48-13.15 252.23-14.45L252.23-14.45Q248.93-15.5 246.61-16.78 244.28-18.05 243.06-19.98 241.83-21.9 241.83-24.9L241.83-24.9Q241.83-28 243.43-30.5 245.03-33 248.43-34.45 251.83-35.9 257.13-35.9L257.13-35.9Q258.73-35.9 260.56-35.77 262.38-35.65 263.48-35.45L263.48-35.45 269.13-31.3 267.19-25.2 255.33-28.45Q253.28-28.45 252.31-27.6 251.33-26.75 251.33-25.55L251.33-25.55Q251.33-24.1 252.98-23.25 254.63-22.4 257.73-21.55L257.73-21.55Q262.63-20.2 265.33-18.55 268.03-16.9 269.13-14.83 270.23-12.75 270.23-10.15L270.23-10.15Q270.23-5.35 266.38-2.43 262.53 0.5 254.83 0.5ZM303.18 0L276.23 0 275.23-3 276.23-8 276.23-35.4 300.98-35.4 303.48-33.9 300.18-26.9 295.68-27.4 285.23-27.4 285.23-21.9 298.68-21.9 298.68-14.15 292.78-14.15 285.23-14.65 285.23-8 300.18-8 306.13-3.2 303.18 0Z" fill="#0074d9" data-fill-palette-color="primary"></path></g></svg></g></svg></g></svg></g></svg></g><g><svg viewBox="0 0 85.41307456848475 98.93861012431626" height="98.93861012431626" width="85.41307456848475"><g><svg xmlns="http://www.w3.org/2000/svg" xmlns:xlink="http://www.w3.org/1999/xlink" version="1.1" x="0" y="0" viewBox="9.638 3.247 80.72399999999999 93.507" enable-background="new 0 0 100 100" xml:space="preserve" height="98.93861012431626" width="85.41307456848475" class="icon-icon-0" data-fill-palette-color="accent" id="icon-0"><g fill="#0074d9" data-fill-palette-color="accent"><g fill="#0074d9" data-fill-palette-color="accent"><polygon points="36.703,11.011 9.638,26.636 9.638,38.757 36.703,23.131 63.767,38.757 63.767,26.636   " fill="#0074d9" data-fill-palette-color="accent"></polygon></g><g fill="#0074d9" data-fill-palette-color="accent"><polygon points="63.298,89.092 36.233,73.467 36.233,61.348 63.298,76.973 90.362,61.348 90.362,73.467   " fill="#0074d9" data-fill-palette-color="accent"></polygon></g><g fill="#0074d9" data-fill-palette-color="accent"><polygon points="9.638,42.012 36.703,26.386 47.198,32.446 20.134,48.072 20.134,79.324 9.638,73.264   " fill="#0074d9" data-fill-palette-color="accent"></polygon></g><g fill="#0074d9" data-fill-palette-color="accent"><polygon points="77.083,18.872 50.018,3.247 39.522,9.307 66.586,24.932 66.586,56.184 77.083,50.124   " fill="#0074d9" data-fill-palette-color="accent"></polygon></g><g fill="#0074d9" data-fill-palette-color="accent"><polygon points="23.01,81.127 23.011,49.876 33.507,43.816 33.507,75.068 60.571,90.693 50.075,96.754   " fill="#0074d9" data-fill-palette-color="accent"></polygon></g><g fill="#0074d9" data-fill-palette-color="accent"><polygon points="90.362,58.092 90.362,26.84 79.866,20.78 79.866,52.031 52.802,67.658 63.298,73.719   " fill="#0074d9" data-fill-palette-color="accent"></polygon></g></g></svg></g></svg></g></svg></g><defs></defs></svg><rect width="395.5199999999999" height="77.06652397282323" fill="none" stroke="none" visibility="hidden"></rect></g></svg></g></svg>